<svg width="33" height="32" viewBox="0 0 33 32" fill="none" xmlns="http://www.w3.org/2000/svg">
<path d="M30.2734 14.4978L24.2659 20.503C23.3574 21.4333 22.2453 22.1398 21.0171 22.5669C19.7889 22.9939 18.4783 23.1297 17.1887 22.9636C15.8991 22.7975 14.6656 22.334 13.5858 21.6097C12.5059 20.8854 11.609 19.9201 10.966 18.79L13.7572 15.999C13.8902 15.8652 14.0537 15.7886 14.2103 15.698C14.4019 16.3775 14.7625 16.9975 15.2586 17.4999C16.0554 18.2952 17.1352 18.7419 18.261 18.7419C19.3868 18.7419 20.4666 18.2952 21.2634 17.4999L27.2688 11.4952C28.0613 10.698 28.5055 9.61914 28.5039 8.49504C28.5023 7.37095 28.0551 6.29333 27.2603 5.49842C26.4655 4.7035 25.3879 4.25613 24.2638 4.25437C23.1397 4.25261 22.0608 4.6966 21.2635 5.48903L19.128 7.62679C17.4038 6.96392 15.5369 6.76066 13.7105 7.03697L18.261 2.48662C19.8538 0.893689 22.0141 -0.00126824 24.2668 -0.00137328C25.3822 -0.0014253 26.4867 0.218216 27.5172 0.64501C28.5477 1.0718 29.4841 1.69739 30.2728 2.48606C31.0615 3.27472 31.6872 4.21102 32.1141 5.24149C32.541 6.27196 32.7608 7.37642 32.7608 8.49181C32.7609 9.6072 32.5412 10.7117 32.1144 11.7422C31.6876 12.7727 31.062 13.7091 30.2734 14.4978ZM14.3931 24.372L12.2561 26.5098C11.4594 27.3062 10.379 27.7536 9.25255 27.7535C8.12606 27.7533 7.04578 27.3057 6.24934 26.509C5.45289 25.7124 5.00554 24.632 5.00568 23.5055C5.00583 22.3791 5.45346 21.2988 6.2501 20.5023L12.2561 14.4972C13.0528 13.7015 14.1327 13.2546 15.2587 13.2546C16.3846 13.2546 17.4646 13.7015 18.2613 14.4972C18.7566 14.9997 19.1175 15.6189 19.3106 16.2977C19.468 16.2061 19.6298 16.1318 19.7625 15.999L22.5534 13.2091C22.199 12.5848 21.7655 12.0087 21.2636 11.4953C19.6709 9.90258 17.5106 9.00779 15.2581 9.00779C13.0056 9.00779 10.8454 9.90258 9.2526 11.4953L3.24754 17.5006C1.65468 19.0933 0.759805 21.2537 0.759766 23.5062C0.759726 25.7588 1.65453 27.9192 3.24733 29.512C4.84013 31.1049 7.00045 31.9997 9.25305 31.9998C11.5056 31.9998 13.666 31.105 15.2589 29.5122L19.8106 24.9611C17.9842 25.238 16.1173 25.035 14.3931 24.372Z" fill="url(#paint0_linear)"/>
<defs>
<linearGradient id="paint0_linear" x1="32.7608" y1="31.9998" x2="0.759666" y2="-0.00127411" gradientUnits="userSpaceOnUse">
<stop stop-color="#00EED6"/>
<stop offset="1" stop-color="#2E9DF6"/>
</linearGradient>
</defs>
</svg>
