<svg width="160" height="32" viewBox="0 0 160 32" fill="none" xmlns="http://www.w3.org/2000/svg">
<g clip-path="url(#clip0)">
<path d="M98.2734 14.4978L92.2659 20.503C91.3574 21.4333 90.2453 22.1398 89.0171 22.5669C87.7889 22.9939 86.4783 23.1297 85.1887 22.9636C83.8991 22.7975 82.6656 22.334 81.5858 21.6097C80.5059 20.8854 79.609 19.9201 78.966 18.79L81.7572 15.999C81.8902 15.8652 82.0537 15.7886 82.2103 15.698C82.4019 16.3775 82.7625 16.9975 83.2586 17.4999C84.0554 18.2952 85.1352 18.7419 86.261 18.7419C87.3868 18.7419 88.4666 18.2952 89.2634 17.4999L95.2688 11.4952C96.0613 10.698 96.5055 9.61914 96.5039 8.49504C96.5023 7.37095 96.0551 6.29333 95.2603 5.49842C94.4655 4.7035 93.3879 4.25613 92.2638 4.25437C91.1397 4.25261 90.0608 4.6966 89.2635 5.48903L87.128 7.62679C85.4038 6.96392 83.5369 6.76066 81.7105 7.03697L86.261 2.48662C87.8538 0.893689 90.0141 -0.00126824 92.2668 -0.00137328C93.3822 -0.0014253 94.4867 0.218216 95.5172 0.64501C96.5477 1.0718 97.4841 1.69739 98.2728 2.48606C99.0615 3.27472 99.6872 4.21102 100.114 5.24149C100.541 6.27196 100.761 7.37642 100.761 8.49181C100.761 9.6072 100.541 10.7117 100.114 11.7422C99.6876 12.7727 99.062 13.7091 98.2734 14.4978ZM82.3931 24.372L80.2561 26.5098C79.4594 27.3062 78.379 27.7536 77.2525 27.7535C76.1261 27.7533 75.0458 27.3057 74.2493 26.509C73.4529 25.7124 73.0055 24.632 73.0057 23.5055C73.0058 22.3791 73.4535 21.2988 74.2501 20.5023L80.2561 14.4972C81.0528 13.7015 82.1327 13.2546 83.2587 13.2546C84.3846 13.2546 85.4646 13.7015 86.2613 14.4972C86.7566 14.9997 87.1175 15.6189 87.3106 16.2977C87.468 16.2061 87.6298 16.1318 87.7625 15.999L90.5534 13.2091C90.199 12.5848 89.7655 12.0087 89.2636 11.4953C87.6709 9.90258 85.5106 9.00779 83.2581 9.00779C81.0056 9.00779 78.8454 9.90258 77.2526 11.4953L71.2475 17.5006C69.6547 19.0933 68.7598 21.2537 68.7598 23.5062C68.7597 25.7588 69.6545 27.9192 71.2473 29.512C72.8401 31.1049 75.0005 31.9997 77.253 31.9998C79.5056 31.9998 81.666 31.105 83.2589 29.5122L87.8106 24.9611C85.9842 25.238 84.1173 25.035 82.3931 24.372Z" fill="url(#paint0_linear)"/>
</g>
<path d="M0 24.8889L6.37156 7.46663H9.95555L16.3271 24.8889H12.9422L11.5484 20.8569H4.75378L3.33511 24.8889H0ZM5.62489 18.368H10.6773L8.13867 11.1253L5.62489 18.368Z" fill="#2A4385"/>
<path d="M24.5379 25.1875C23.2603 25.1875 22.1071 24.9386 21.0784 24.4409C20.0496 23.9265 19.2283 23.1549 18.6144 22.1262C18.017 21.0975 17.7184 19.7949 17.7184 18.2186V7.46663H20.9041V18.2435C20.9041 19.6041 21.2277 20.6163 21.8748 21.28C22.5385 21.9437 23.4511 22.2755 24.6126 22.2755C25.7575 22.2755 26.6618 21.9437 27.3255 21.28C27.9892 20.6163 28.321 19.6041 28.321 18.2435V7.46663H31.5068V18.2186C31.5068 19.7949 31.1915 21.0975 30.561 22.1262C29.9305 23.1549 29.0843 23.9265 28.0224 24.4409C26.977 24.9386 25.8155 25.1875 24.5379 25.1875Z" fill="#2A4385"/>
<path d="M38.8158 24.8889V10.0302H33.7384V7.46663H47.1038V10.0302H42.0016V24.8889H38.8158Z" fill="#2A4385"/>
<path d="M56.9954 25.1875C55.2531 25.1875 53.7266 24.8059 52.4158 24.0426C51.1216 23.2794 50.1011 22.2257 49.3545 20.8817C48.6244 19.5212 48.2594 17.9532 48.2594 16.1777C48.2594 14.4023 48.6244 12.8426 49.3545 11.4986C50.1011 10.138 51.1216 9.07612 52.4158 8.31286C53.7266 7.5496 55.2531 7.16797 56.9954 7.16797C58.721 7.16797 60.2392 7.5496 61.55 8.31286C62.8608 9.07612 63.8813 10.138 64.6114 11.4986C65.3414 12.8426 65.7065 14.4023 65.7065 16.1777C65.7065 17.9532 65.3414 19.5212 64.6114 20.8817C63.8813 22.2257 62.8608 23.2794 61.55 24.0426C60.2392 24.8059 58.721 25.1875 56.9954 25.1875ZM56.9954 22.3253C58.6546 22.3253 59.9737 21.7777 60.9527 20.6826C61.9482 19.5875 62.446 18.0859 62.446 16.1777C62.446 14.2696 61.9482 12.768 60.9527 11.6729C59.9737 10.5777 58.6546 10.0302 56.9954 10.0302C55.3361 10.0302 54.0087 10.5777 53.0131 11.6729C52.0176 12.768 51.5198 14.2696 51.5198 16.1777C51.5198 18.0859 52.0176 19.5875 53.0131 20.6826C54.0087 21.7777 55.3361 22.3253 56.9954 22.3253Z" fill="#2A4385"/>
<path d="M107.63 24.8889V7.46663H110.816V22.4H118.532V24.8889H107.63Z" fill="#2A4385"/>
<path d="M121.339 24.8889V7.46663H124.525V24.8889H121.339Z" fill="#2A4385"/>
<path d="M127.901 24.8889V7.46663H131.087L139.275 19.7369V7.46663H142.461V24.8889H139.275L131.087 12.6435V24.8889H127.901Z" fill="#2A4385"/>
<path d="M145.839 24.8889V7.46663H149.025V14.5102L155.471 7.46663H159.403L152.982 14.3857L159.577 24.8889H155.67L150.692 16.8249L149.025 18.6417V24.8889H145.839Z" fill="#2A4385"/>
<defs>
<linearGradient id="paint0_linear" x1="100.761" y1="31.9998" x2="68.7597" y2="-0.00127411" gradientUnits="userSpaceOnUse">
<stop stop-color="#00EED6"/>
<stop offset="1" stop-color="#2E9DF6"/>
</linearGradient>
<clipPath id="clip0">
<rect width="32" height="32" fill="white" transform="translate(68.7607)"/>
</clipPath>
</defs>
</svg>
